<?xml version="1.0" standalone="no"?>
<svg viewBox="0 0 200 200" xmlns="http://www.w3.org/2000/svg">
  <path fill="#0F62FE" d="M43.3,-74.1C57.2,-66.9,70.5,-57.6,76.9,-44.9C83.3,-32.2,82.8,-16.1,81.6,-0.7C80.4,14.8,78.5,29.5,71.2,40.6C63.9,51.6,51.1,59,38.3,65.9C25.6,72.7,12.8,79,-0.4,79.6C-13.5,80.3,-27,75.2,-36.6,66.5C-46.2,57.8,-51.9,45.5,-59.5,33.8C-67.2,22.2,-76.9,11.1,-79.2,-1.4C-81.6,-13.8,-76.6,-27.6,-68.4,-38.3C-60.2,-49.1,-48.7,-56.9,-36.8,-65.2C-24.9,-73.6,-12.4,-82.6,1.1,-84.5C14.7,-86.4,29.3,-81.3,43.3,-74.1Z" transform="translate(100 100)" />
</svg>
