<?xml version="1.0" standalone="no"?>
<svg viewBox="0 0 200 200" xmlns="http://www.w3.org/2000/svg">
  <path fill="#0F62FE" d="M43.2,-62.8C57.2,-58.2,70.6,-48.3,76.6,-35C82.6,-21.8,81.2,-5.2,77.6,10.3C74,25.7,68.3,40,59.2,52.1C50,64.2,37.4,74.2,23.5,76.8C9.6,79.4,-5.5,74.7,-20.2,69.9C-34.8,65,-49.1,60,-59.6,50.3C-70.1,40.6,-76.7,26.3,-78.4,11.5C-80.2,-3.3,-77.1,-18.5,-71.5,-33.5C-65.9,-48.4,-57.9,-63,-45.6,-68.4C-33.3,-73.8,-16.6,-69.9,-1,-68.3C14.6,-66.8,29.2,-67.4,43.2,-62.8Z" transform="translate(100 100)" />
</svg>
