<?xml version="1.0" standalone="no"?>
<svg viewBox="0 0 200 200" xmlns="http://www.w3.org/2000/svg">
  <path fill="#0F62FE" d="M39.4,-67.5C51.9,-61,63.6,-52.2,71.7,-40.6C79.8,-29,84.4,-14.5,84.3,0C84.3,14.4,79.6,28.8,70.3,38.5C61.1,48.2,47.3,53.1,34.8,61.6C22.3,70.1,11.2,82.1,0.1,81.9C-11,81.8,-21.9,69.4,-34.4,60.9C-46.9,52.4,-60.9,47.8,-66,38.3C-71.1,28.8,-67.2,14.4,-68.1,-0.5C-68.9,-15.4,-74.4,-30.7,-71.3,-43.7C-68.2,-56.7,-56.6,-67.4,-43.3,-73.5C-30,-79.7,-15,-81.3,-0.8,-79.9C13.4,-78.5,26.8,-74.1,39.4,-67.5Z" transform="translate(100 100)" />
</svg>
