<?xml version="1.0" standalone="no"?>
<svg viewBox="0 0 200 200" xmlns="http://www.w3.org/2000/svg">
  <path fill="#0F62FE" d="M43.8,-75C57.1,-68.2,68.5,-57.2,74.3,-43.9C80.2,-30.7,80.5,-15.4,81.6,0.6C82.7,16.6,84.5,33.2,79,47C73.5,60.8,60.7,71.9,46.3,74.9C31.9,77.8,16,72.7,1.4,70.2C-13.1,67.7,-26.2,67.9,-39.6,64.4C-53.1,60.9,-66.9,53.7,-75.3,42.4C-83.6,31.1,-86.5,15.5,-83.6,1.7C-80.6,-12.1,-71.7,-24.2,-64.9,-38.2C-58.1,-52.3,-53.4,-68.4,-43,-76.8C-32.5,-85.2,-16.3,-85.9,-0.5,-85C15.3,-84.1,30.5,-81.7,43.8,-75Z" transform="translate(100 100)" />
</svg>
